<svg width="203" height="202" viewBox="0 0 203 202" fill="none" xmlns="http://www.w3.org/2000/svg">
<rect x="1" y="0.5" width="201" height="201" fill="#F5F5F5" stroke="black"/>
<line x1="42" y1="1" x2="42" y2="202" stroke="black"/>
<line x1="1" y1="2.18557e-08" x2="0.999991" y2="201" stroke="black"/>
<line x1="122" y1="1" x2="122" y2="202" stroke="black"/>
<line x1="162" y1="1" x2="162" y2="202" stroke="black"/>
<line x1="202" y1="2.18557e-08" x2="202" y2="201" stroke="black"/>
<line x1="82" y1="1" x2="82" y2="202" stroke="black"/>
<line x1="1" y1="160.5" x2="202" y2="160.5" stroke="black"/>
<line x1="1" y1="201.5" x2="202" y2="201.5" stroke="black"/>
<line x1="1" y1="80.5" x2="202" y2="80.5" stroke="black"/>
<line x1="1" y1="40.5" x2="202" y2="40.5" stroke="black"/>
<line x1="1" y1="0.5" x2="202" y2="0.500009" stroke="black"/>
<line x1="1" y1="120.5" x2="202" y2="120.5" stroke="black"/>
<rect x="82.25" y="40.75" width="39.5" height="39.5" fill="#F72A2A" stroke="black" stroke-width="0.5"/>
<rect x="82.25" y="80.75" width="39.5" height="39.5" fill="#F72A2A" stroke="black" stroke-width="0.5"/>
<rect x="42.246" y="80.7506" width="39.5" height="39.5" transform="rotate(0.127563 42.246 80.7506)" fill="#3E7CF3" stroke="black" stroke-width="0.5"/>
<rect x="122.25" y="40.75" width="39.5" height="39.5" fill="#F72A2A" stroke="black" stroke-width="0.5"/>
<rect x="82.25" y="120.75" width="39.5" height="39.5" fill="#3E7CF3" stroke="black" stroke-width="0.5"/>
<path d="M145.411 63.9609V65H138.896V64.0908L142.157 60.4609C142.558 60.0143 142.868 59.6361 143.087 59.3262C143.31 59.0117 143.465 58.7314 143.552 58.4854C143.643 58.2347 143.688 57.9795 143.688 57.7197C143.688 57.3916 143.62 57.0954 143.483 56.8311C143.351 56.5622 143.155 56.348 142.896 56.1885C142.636 56.029 142.321 55.9492 141.952 55.9492C141.51 55.9492 141.141 56.0358 140.845 56.209C140.553 56.3776 140.334 56.6146 140.188 56.9199C140.043 57.2253 139.97 57.5762 139.97 57.9727H138.705C138.705 57.4121 138.828 56.8994 139.074 56.4346C139.32 55.9697 139.685 55.6006 140.168 55.3271C140.651 55.0492 141.246 54.9102 141.952 54.9102C142.581 54.9102 143.119 55.0218 143.565 55.2451C144.012 55.4639 144.354 55.7738 144.591 56.1748C144.832 56.5713 144.953 57.0361 144.953 57.5693C144.953 57.861 144.903 58.1572 144.803 58.458C144.707 58.7542 144.573 59.0505 144.399 59.3467C144.231 59.6429 144.033 59.9346 143.805 60.2217C143.581 60.5088 143.342 60.7913 143.087 61.0693L140.421 63.9609H145.411Z" fill="white"/>
<path d="M100.735 59.4014H101.638C102.08 59.4014 102.444 59.3285 102.731 59.1826C103.023 59.0322 103.24 58.8294 103.381 58.5742C103.527 58.3145 103.6 58.0228 103.6 57.6992C103.6 57.3164 103.536 56.9951 103.408 56.7354C103.281 56.4756 103.089 56.2796 102.834 56.1475C102.579 56.0153 102.255 55.9492 101.863 55.9492C101.508 55.9492 101.193 56.0199 100.92 56.1611C100.651 56.2979 100.439 56.4938 100.284 56.749C100.134 57.0042 100.059 57.305 100.059 57.6514H98.7939C98.7939 57.1455 98.9215 56.6852 99.1768 56.2705C99.432 55.8558 99.7897 55.5254 100.25 55.2793C100.715 55.0332 101.253 54.9102 101.863 54.9102C102.465 54.9102 102.991 55.0173 103.442 55.2314C103.894 55.4411 104.244 55.7555 104.495 56.1748C104.746 56.5895 104.871 57.1068 104.871 57.7266C104.871 57.9772 104.812 58.2461 104.693 58.5332C104.579 58.8158 104.399 59.0801 104.153 59.3262C103.912 59.5723 103.597 59.7751 103.21 59.9346C102.823 60.0895 102.358 60.167 101.815 60.167H100.735V59.4014ZM100.735 60.4404V59.6816H101.815C102.449 59.6816 102.973 59.7568 103.388 59.9072C103.802 60.0576 104.128 60.2581 104.365 60.5088C104.607 60.7594 104.775 61.0352 104.871 61.3359C104.971 61.6322 105.021 61.9284 105.021 62.2246C105.021 62.6895 104.942 63.1019 104.782 63.4619C104.627 63.8219 104.406 64.1273 104.119 64.3779C103.837 64.6286 103.504 64.8177 103.121 64.9453C102.738 65.0729 102.321 65.1367 101.87 65.1367C101.437 65.1367 101.029 65.0752 100.646 64.9521C100.268 64.8291 99.9333 64.6514 99.6416 64.4189C99.3499 64.182 99.1221 63.8926 98.958 63.5508C98.7939 63.2044 98.7119 62.8102 98.7119 62.3682H99.9766C99.9766 62.7145 100.052 63.0176 100.202 63.2773C100.357 63.5371 100.576 63.7399 100.858 63.8857C101.146 64.027 101.483 64.0977 101.87 64.0977C102.257 64.0977 102.59 64.0316 102.868 63.8994C103.151 63.7627 103.367 63.5576 103.518 63.2842C103.673 63.0107 103.75 62.6667 103.75 62.252C103.75 61.8372 103.663 61.4977 103.49 61.2334C103.317 60.9645 103.071 60.7663 102.752 60.6387C102.438 60.5065 102.066 60.4404 101.638 60.4404H100.735Z" fill="white"/>
<path d="M105.616 101.65V102.689H98.4248V101.944L102.882 95.0469H103.914L102.807 97.043L99.8604 101.65H105.616ZM104.229 95.0469V105H102.964V95.0469H104.229Z" fill="white"/>
<path d="M145.616 101.65V102.689H138.425V101.944L142.882 95.0469H143.914L142.807 97.043L139.86 101.65H145.616ZM144.229 95.0469V105H142.964V95.0469H144.229Z" fill="black"/>
<path d="M145.411 143.961V145H138.896V144.091L142.157 140.461C142.558 140.014 142.868 139.636 143.087 139.326C143.31 139.012 143.465 138.731 143.552 138.485C143.643 138.235 143.688 137.979 143.688 137.72C143.688 137.392 143.62 137.095 143.483 136.831C143.351 136.562 143.155 136.348 142.896 136.188C142.636 136.029 142.321 135.949 141.952 135.949C141.51 135.949 141.141 136.036 140.845 136.209C140.553 136.378 140.334 136.615 140.188 136.92C140.043 137.225 139.97 137.576 139.97 137.973H138.705C138.705 137.412 138.828 136.899 139.074 136.435C139.32 135.97 139.685 135.601 140.168 135.327C140.651 135.049 141.246 134.91 141.952 134.91C142.581 134.91 143.119 135.022 143.565 135.245C144.012 135.464 144.354 135.774 144.591 136.175C144.832 136.571 144.953 137.036 144.953 137.569C144.953 137.861 144.903 138.157 144.803 138.458C144.707 138.754 144.573 139.05 144.399 139.347C144.231 139.643 144.033 139.935 143.805 140.222C143.581 140.509 143.342 140.791 143.087 141.069L140.421 143.961H145.411Z" fill="black"/>
<path d="M102.546 175.992V186H101.281V177.571L98.7314 178.501V177.359L102.348 175.992H102.546Z" fill="black"/>
<path d="M143.053 186H141.781V177.571L139.231 178.508V177.359L142.854 175.999H143.053V186Z" fill="black"/>
<path d="M63.0459 174.992V185H61.7812V176.571L59.2314 177.501V176.359L62.8477 174.992H63.0459Z" fill="black"/>
<path d="M22.5459 134.992V145H21.2812V136.571L18.7314 137.501V136.359L22.3477 134.992H22.5459Z" fill="black"/>
<path d="M60.7354 139.401H61.6377C62.0798 139.401 62.4443 139.328 62.7314 139.183C63.0231 139.032 63.2396 138.829 63.3809 138.574C63.5267 138.314 63.5996 138.023 63.5996 137.699C63.5996 137.316 63.5358 136.995 63.4082 136.735C63.2806 136.476 63.0892 136.28 62.834 136.147C62.5788 136.015 62.2552 135.949 61.8633 135.949C61.5078 135.949 61.1934 136.02 60.9199 136.161C60.651 136.298 60.4391 136.494 60.2842 136.749C60.1338 137.004 60.0586 137.305 60.0586 137.651H58.7939C58.7939 137.146 58.9215 136.685 59.1768 136.271C59.432 135.856 59.7897 135.525 60.25 135.279C60.7148 135.033 61.2526 134.91 61.8633 134.91C62.4648 134.91 62.9912 135.017 63.4424 135.231C63.8936 135.441 64.2445 135.756 64.4951 136.175C64.7458 136.59 64.8711 137.107 64.8711 137.727C64.8711 137.977 64.8118 138.246 64.6934 138.533C64.5794 138.816 64.3994 139.08 64.1533 139.326C63.9118 139.572 63.5973 139.775 63.21 139.935C62.8226 140.09 62.3577 140.167 61.8154 140.167H60.7354V139.401ZM60.7354 140.44V139.682H61.8154C62.4489 139.682 62.973 139.757 63.3877 139.907C63.8024 140.058 64.1283 140.258 64.3652 140.509C64.6068 140.759 64.7754 141.035 64.8711 141.336C64.9714 141.632 65.0215 141.928 65.0215 142.225C65.0215 142.689 64.9417 143.102 64.7822 143.462C64.6273 143.822 64.4062 144.127 64.1191 144.378C63.8366 144.629 63.5039 144.818 63.1211 144.945C62.7383 145.073 62.3213 145.137 61.8701 145.137C61.4372 145.137 61.0293 145.075 60.6465 144.952C60.2682 144.829 59.9333 144.651 59.6416 144.419C59.3499 144.182 59.1221 143.893 58.958 143.551C58.7939 143.204 58.7119 142.81 58.7119 142.368H59.9766C59.9766 142.715 60.0518 143.018 60.2021 143.277C60.3571 143.537 60.5758 143.74 60.8584 143.886C61.1455 144.027 61.4827 144.098 61.8701 144.098C62.2575 144.098 62.5902 144.032 62.8682 143.899C63.1507 143.763 63.3672 143.558 63.5176 143.284C63.6725 143.011 63.75 142.667 63.75 142.252C63.75 141.837 63.6634 141.498 63.4902 141.233C63.3171 140.965 63.071 140.766 62.752 140.639C62.4375 140.507 62.0661 140.44 61.6377 140.44H60.7354Z" fill="black"/>
<path d="M22.5459 94.9922V105H21.2812V96.5713L18.7314 97.501V96.3594L22.3477 94.9922H22.5459Z" fill="black"/>
<path d="M183.046 14.9922V25H181.781V16.5713L179.231 17.501V16.3594L182.848 14.9922H183.046Z" fill="black"/>
<path d="M183.046 54.9922V65H181.781V56.5713L179.231 57.501V56.3594L182.848 54.9922H183.046Z" fill="black"/>
<path d="M183.046 94.9922V105H181.781V96.5713L179.231 97.501V96.3594L182.848 94.9922H183.046Z" fill="black"/>
<path d="M60.7354 59.4082H61.6855C62.2826 59.3991 62.752 59.2419 63.0938 58.9365C63.4355 58.6312 63.6064 58.2188 63.6064 57.6992C63.6064 56.5326 63.0254 55.9492 61.8633 55.9492C61.3164 55.9492 60.8789 56.1064 60.5508 56.4209C60.2272 56.7308 60.0654 57.1432 60.0654 57.6582H58.8008C58.8008 56.8698 59.0879 56.2158 59.6621 55.6963C60.2409 55.1722 60.9746 54.9102 61.8633 54.9102C62.8021 54.9102 63.5381 55.1585 64.0713 55.6553C64.6045 56.152 64.8711 56.8424 64.8711 57.7266C64.8711 58.1595 64.7298 58.5788 64.4473 58.9844C64.1693 59.39 63.7887 59.693 63.3057 59.8936C63.8525 60.0667 64.2741 60.3538 64.5703 60.7549C64.8711 61.1559 65.0215 61.6458 65.0215 62.2246C65.0215 63.1178 64.7298 63.8265 64.1465 64.3506C63.5632 64.8747 62.8044 65.1367 61.8701 65.1367C60.9359 65.1367 60.1748 64.8838 59.5869 64.3779C59.0036 63.8721 58.7119 63.2044 58.7119 62.375H59.9834C59.9834 62.8991 60.1543 63.3184 60.4961 63.6328C60.8379 63.9473 61.2959 64.1045 61.8701 64.1045C62.4808 64.1045 62.9479 63.945 63.2715 63.626C63.5951 63.307 63.7568 62.849 63.7568 62.252C63.7568 61.6732 63.5791 61.2288 63.2236 60.9189C62.8682 60.609 62.3555 60.4495 61.6855 60.4404H60.7354V59.4082Z" fill="black"/>
<path d="M22.5459 54.9922V65H21.2812V56.5713L18.7314 57.501V56.3594L22.3477 54.9922H22.5459Z" fill="black"/>
<path d="M105.411 23.9609V25H98.8965V24.0908L102.157 20.4609C102.558 20.0143 102.868 19.6361 103.087 19.3262C103.31 19.0117 103.465 18.7314 103.552 18.4854C103.643 18.2347 103.688 17.9795 103.688 17.7197C103.688 17.3916 103.62 17.0954 103.483 16.8311C103.351 16.5622 103.155 16.348 102.896 16.1885C102.636 16.029 102.321 15.9492 101.952 15.9492C101.51 15.9492 101.141 16.0358 100.845 16.209C100.553 16.3776 100.334 16.6146 100.188 16.9199C100.043 17.2253 99.9697 17.5762 99.9697 17.9727H98.7051C98.7051 17.4121 98.8281 16.8994 99.0742 16.4346C99.3203 15.9697 99.6849 15.6006 100.168 15.3271C100.651 15.0492 101.246 14.9102 101.952 14.9102C102.581 14.9102 103.119 15.0218 103.565 15.2451C104.012 15.4639 104.354 15.7738 104.591 16.1748C104.832 16.5713 104.953 17.0361 104.953 17.5693C104.953 17.861 104.903 18.1572 104.803 18.458C104.707 18.7542 104.573 19.0505 104.399 19.3467C104.231 19.6429 104.033 19.9346 103.805 20.2217C103.581 20.5088 103.342 20.7913 103.087 21.0693L100.421 23.9609H105.411Z" fill="black"/>
<path d="M145.411 23.9609V25H138.896V24.0908L142.157 20.4609C142.558 20.0143 142.868 19.6361 143.087 19.3262C143.31 19.0117 143.465 18.7314 143.552 18.4854C143.643 18.2347 143.688 17.9795 143.688 17.7197C143.688 17.3916 143.62 17.0954 143.483 16.8311C143.351 16.5622 143.155 16.348 142.896 16.1885C142.636 16.029 142.321 15.9492 141.952 15.9492C141.51 15.9492 141.141 16.0358 140.845 16.209C140.553 16.3776 140.334 16.6146 140.188 16.9199C140.043 17.2253 139.97 17.5762 139.97 17.9727H138.705C138.705 17.4121 138.828 16.8994 139.074 16.4346C139.32 15.9697 139.685 15.6006 140.168 15.3271C140.651 15.0492 141.246 14.9102 141.952 14.9102C142.581 14.9102 143.119 15.0218 143.565 15.2451C144.012 15.4639 144.354 15.7738 144.591 16.1748C144.832 16.5713 144.953 17.0361 144.953 17.5693C144.953 17.861 144.903 18.1572 144.803 18.458C144.707 18.7542 144.573 19.0505 144.399 19.3467C144.231 19.6429 144.033 19.9346 143.805 20.2217C143.581 20.5088 143.342 20.7913 143.087 21.0693L140.421 23.9609H145.411Z" fill="black"/>
<path d="M63.0527 25H61.7812V16.5713L59.2314 17.5078V16.3594L62.8545 14.999H63.0527V25Z" fill="black"/>
<path d="M63.0459 14.9922V25H61.7812V16.5713L59.2314 17.501V16.3594L62.8477 14.9922H63.0459Z" fill="black"/>
<path d="M24.6377 19.2305V20.748C24.6377 21.5638 24.5648 22.252 24.4189 22.8125C24.2731 23.373 24.0635 23.8242 23.79 24.166C23.5166 24.5078 23.1862 24.7562 22.7988 24.9111C22.416 25.0615 21.9831 25.1367 21.5 25.1367C21.1172 25.1367 20.764 25.0889 20.4404 24.9932C20.1169 24.8975 19.8252 24.7448 19.5654 24.5352C19.3102 24.321 19.0915 24.043 18.9092 23.7012C18.7269 23.3594 18.5879 22.9447 18.4922 22.457C18.3965 21.9694 18.3486 21.3997 18.3486 20.748V19.2305C18.3486 18.4147 18.4215 17.7311 18.5674 17.1797C18.7178 16.6283 18.9297 16.1862 19.2031 15.8535C19.4766 15.5163 19.8047 15.2747 20.1875 15.1289C20.5749 14.9831 21.0078 14.9102 21.4863 14.9102C21.8737 14.9102 22.2292 14.958 22.5527 15.0537C22.8809 15.1449 23.1725 15.293 23.4277 15.498C23.6829 15.6986 23.8994 15.9674 24.0771 16.3047C24.2594 16.6374 24.3984 17.0452 24.4941 17.5283C24.5898 18.0114 24.6377 18.5788 24.6377 19.2305ZM23.3662 20.9531V19.0186C23.3662 18.5719 23.3389 18.18 23.2842 17.8428C23.234 17.501 23.1589 17.2093 23.0586 16.9678C22.9583 16.7262 22.8307 16.5303 22.6758 16.3799C22.5254 16.2295 22.3499 16.1201 22.1494 16.0518C21.9535 15.9788 21.7324 15.9424 21.4863 15.9424C21.1855 15.9424 20.9189 15.9993 20.6865 16.1133C20.4541 16.2227 20.2581 16.3981 20.0986 16.6396C19.9437 16.8812 19.8252 17.1979 19.7432 17.5898C19.6611 17.9818 19.6201 18.458 19.6201 19.0186V20.9531C19.6201 21.3997 19.6452 21.7939 19.6953 22.1357C19.75 22.4775 19.8298 22.7738 19.9346 23.0244C20.0394 23.2705 20.167 23.4733 20.3174 23.6328C20.4678 23.7923 20.641 23.9108 20.8369 23.9883C21.0374 24.0612 21.2585 24.0977 21.5 24.0977C21.8099 24.0977 22.0811 24.0384 22.3135 23.9199C22.5459 23.8014 22.7396 23.6169 22.8945 23.3662C23.054 23.111 23.1725 22.7852 23.25 22.3887C23.3275 21.9876 23.3662 21.5091 23.3662 20.9531Z" fill="black"/>
<path d="M185.138 139.23V140.748C185.138 141.564 185.065 142.252 184.919 142.812C184.773 143.373 184.563 143.824 184.29 144.166C184.017 144.508 183.686 144.756 183.299 144.911C182.916 145.062 182.483 145.137 182 145.137C181.617 145.137 181.264 145.089 180.94 144.993C180.617 144.897 180.325 144.745 180.065 144.535C179.81 144.321 179.591 144.043 179.409 143.701C179.227 143.359 179.088 142.945 178.992 142.457C178.896 141.969 178.849 141.4 178.849 140.748V139.23C178.849 138.415 178.922 137.731 179.067 137.18C179.218 136.628 179.43 136.186 179.703 135.854C179.977 135.516 180.305 135.275 180.688 135.129C181.075 134.983 181.508 134.91 181.986 134.91C182.374 134.91 182.729 134.958 183.053 135.054C183.381 135.145 183.673 135.293 183.928 135.498C184.183 135.699 184.399 135.967 184.577 136.305C184.759 136.637 184.898 137.045 184.994 137.528C185.09 138.011 185.138 138.579 185.138 139.23ZM183.866 140.953V139.019C183.866 138.572 183.839 138.18 183.784 137.843C183.734 137.501 183.659 137.209 183.559 136.968C183.458 136.726 183.331 136.53 183.176 136.38C183.025 136.229 182.85 136.12 182.649 136.052C182.453 135.979 182.232 135.942 181.986 135.942C181.686 135.942 181.419 135.999 181.187 136.113C180.954 136.223 180.758 136.398 180.599 136.64C180.444 136.881 180.325 137.198 180.243 137.59C180.161 137.982 180.12 138.458 180.12 139.019V140.953C180.12 141.4 180.145 141.794 180.195 142.136C180.25 142.478 180.33 142.774 180.435 143.024C180.539 143.271 180.667 143.473 180.817 143.633C180.968 143.792 181.141 143.911 181.337 143.988C181.537 144.061 181.758 144.098 182 144.098C182.31 144.098 182.581 144.038 182.813 143.92C183.046 143.801 183.24 143.617 183.395 143.366C183.554 143.111 183.673 142.785 183.75 142.389C183.827 141.988 183.866 141.509 183.866 140.953Z" fill="black"/>
<path d="M185.138 179.23V180.748C185.138 181.564 185.065 182.252 184.919 182.812C184.773 183.373 184.563 183.824 184.29 184.166C184.017 184.508 183.686 184.756 183.299 184.911C182.916 185.062 182.483 185.137 182 185.137C181.617 185.137 181.264 185.089 180.94 184.993C180.617 184.897 180.325 184.745 180.065 184.535C179.81 184.321 179.591 184.043 179.409 183.701C179.227 183.359 179.088 182.945 178.992 182.457C178.896 181.969 178.849 181.4 178.849 180.748V179.23C178.849 178.415 178.922 177.731 179.067 177.18C179.218 176.628 179.43 176.186 179.703 175.854C179.977 175.516 180.305 175.275 180.688 175.129C181.075 174.983 181.508 174.91 181.986 174.91C182.374 174.91 182.729 174.958 183.053 175.054C183.381 175.145 183.673 175.293 183.928 175.498C184.183 175.699 184.399 175.967 184.577 176.305C184.759 176.637 184.898 177.045 184.994 177.528C185.09 178.011 185.138 178.579 185.138 179.23ZM183.866 180.953V179.019C183.866 178.572 183.839 178.18 183.784 177.843C183.734 177.501 183.659 177.209 183.559 176.968C183.458 176.726 183.331 176.53 183.176 176.38C183.025 176.229 182.85 176.12 182.649 176.052C182.453 175.979 182.232 175.942 181.986 175.942C181.686 175.942 181.419 175.999 181.187 176.113C180.954 176.223 180.758 176.398 180.599 176.64C180.444 176.881 180.325 177.198 180.243 177.59C180.161 177.982 180.12 178.458 180.12 179.019V180.953C180.12 181.4 180.145 181.794 180.195 182.136C180.25 182.478 180.33 182.774 180.435 183.024C180.539 183.271 180.667 183.473 180.817 183.633C180.968 183.792 181.141 183.911 181.337 183.988C181.537 184.061 181.758 184.098 182 184.098C182.31 184.098 182.581 184.038 182.813 183.92C183.046 183.801 183.24 183.617 183.395 183.366C183.554 183.111 183.673 182.785 183.75 182.389C183.827 181.988 183.866 181.509 183.866 180.953Z" fill="black"/>
<path d="M24.6377 179.23V180.748C24.6377 181.564 24.5648 182.252 24.4189 182.812C24.2731 183.373 24.0635 183.824 23.79 184.166C23.5166 184.508 23.1862 184.756 22.7988 184.911C22.416 185.062 21.9831 185.137 21.5 185.137C21.1172 185.137 20.764 185.089 20.4404 184.993C20.1169 184.897 19.8252 184.745 19.5654 184.535C19.3102 184.321 19.0915 184.043 18.9092 183.701C18.7269 183.359 18.5879 182.945 18.4922 182.457C18.3965 181.969 18.3486 181.4 18.3486 180.748V179.23C18.3486 178.415 18.4215 177.731 18.5674 177.18C18.7178 176.628 18.9297 176.186 19.2031 175.854C19.4766 175.516 19.8047 175.275 20.1875 175.129C20.5749 174.983 21.0078 174.91 21.4863 174.91C21.8737 174.91 22.2292 174.958 22.5527 175.054C22.8809 175.145 23.1725 175.293 23.4277 175.498C23.6829 175.699 23.8994 175.967 24.0771 176.305C24.2594 176.637 24.3984 177.045 24.4941 177.528C24.5898 178.011 24.6377 178.579 24.6377 179.23ZM23.3662 180.953V179.019C23.3662 178.572 23.3389 178.18 23.2842 177.843C23.234 177.501 23.1589 177.209 23.0586 176.968C22.9583 176.726 22.8307 176.53 22.6758 176.38C22.5254 176.229 22.3499 176.12 22.1494 176.052C21.9535 175.979 21.7324 175.942 21.4863 175.942C21.1855 175.942 20.9189 175.999 20.6865 176.113C20.4541 176.223 20.2581 176.398 20.0986 176.64C19.9437 176.881 19.8252 177.198 19.7432 177.59C19.6611 177.982 19.6201 178.458 19.6201 179.019V180.953C19.6201 181.4 19.6452 181.794 19.6953 182.136C19.75 182.478 19.8298 182.774 19.9346 183.024C20.0394 183.271 20.167 183.473 20.3174 183.633C20.4678 183.792 20.641 183.911 20.8369 183.988C21.0374 184.061 21.2585 184.098 21.5 184.098C21.8099 184.098 22.0811 184.038 22.3135 183.92C22.5459 183.801 22.7396 183.617 22.8945 183.366C23.054 183.111 23.1725 182.785 23.25 182.389C23.3275 181.988 23.3662 181.509 23.3662 180.953Z" fill="black"/>
<path d="M105.411 143.961V145H98.8965V144.091L102.157 140.461C102.558 140.014 102.868 139.636 103.087 139.326C103.31 139.012 103.465 138.731 103.552 138.485C103.643 138.235 103.688 137.979 103.688 137.72C103.688 137.392 103.62 137.095 103.483 136.831C103.351 136.562 103.155 136.348 102.896 136.188C102.636 136.029 102.321 135.949 101.952 135.949C101.51 135.949 101.141 136.036 100.845 136.209C100.553 136.378 100.334 136.615 100.188 136.92C100.043 137.225 99.9697 137.576 99.9697 137.973H98.7051C98.7051 137.412 98.8281 136.899 99.0742 136.435C99.3203 135.97 99.6849 135.601 100.168 135.327C100.651 135.049 101.246 134.91 101.952 134.91C102.581 134.91 103.119 135.022 103.565 135.245C104.012 135.464 104.354 135.774 104.591 136.175C104.832 136.571 104.953 137.036 104.953 137.569C104.953 137.861 104.903 138.157 104.803 138.458C104.707 138.754 104.573 139.05 104.399 139.347C104.231 139.643 104.033 139.935 103.805 140.222C103.581 140.509 103.342 140.791 103.087 141.069L100.421 143.961H105.411Z" fill="white"/>
<path d="M60.7354 99.4014H61.6377C62.0798 99.4014 62.4443 99.3285 62.7314 99.1826C63.0231 99.0322 63.2396 98.8294 63.3809 98.5742C63.5267 98.3145 63.5996 98.0228 63.5996 97.6992C63.5996 97.3164 63.5358 96.9951 63.4082 96.7354C63.2806 96.4756 63.0892 96.2796 62.834 96.1475C62.5788 96.0153 62.2552 95.9492 61.8633 95.9492C61.5078 95.9492 61.1934 96.0199 60.9199 96.1611C60.651 96.2979 60.4391 96.4938 60.2842 96.749C60.1338 97.0042 60.0586 97.305 60.0586 97.6514H58.7939C58.7939 97.1455 58.9215 96.6852 59.1768 96.2705C59.432 95.8558 59.7897 95.5254 60.25 95.2793C60.7148 95.0332 61.2526 94.9102 61.8633 94.9102C62.4648 94.9102 62.9912 95.0173 63.4424 95.2314C63.8936 95.4411 64.2445 95.7555 64.4951 96.1748C64.7458 96.5895 64.8711 97.1068 64.8711 97.7266C64.8711 97.9772 64.8118 98.2461 64.6934 98.5332C64.5794 98.8158 64.3994 99.0801 64.1533 99.3262C63.9118 99.5723 63.5973 99.7751 63.21 99.9346C62.8226 100.09 62.3577 100.167 61.8154 100.167H60.7354V99.4014ZM60.7354 100.44V99.6816H61.8154C62.4489 99.6816 62.973 99.7568 63.3877 99.9072C63.8024 100.058 64.1283 100.258 64.3652 100.509C64.6068 100.759 64.7754 101.035 64.8711 101.336C64.9714 101.632 65.0215 101.928 65.0215 102.225C65.0215 102.689 64.9417 103.102 64.7822 103.462C64.6273 103.822 64.4062 104.127 64.1191 104.378C63.8366 104.629 63.5039 104.818 63.1211 104.945C62.7383 105.073 62.3213 105.137 61.8701 105.137C61.4372 105.137 61.0293 105.075 60.6465 104.952C60.2682 104.829 59.9333 104.651 59.6416 104.419C59.3499 104.182 59.1221 103.893 58.958 103.551C58.7939 103.204 58.7119 102.81 58.7119 102.368H59.9766C59.9766 102.715 60.0518 103.018 60.2021 103.277C60.3571 103.537 60.5758 103.74 60.8584 103.886C61.1455 104.027 61.4827 104.098 61.8701 104.098C62.2575 104.098 62.5902 104.032 62.8682 103.899C63.1507 103.763 63.3672 103.558 63.5176 103.284C63.6725 103.011 63.75 102.667 63.75 102.252C63.75 101.837 63.6634 101.498 63.4902 101.233C63.3171 100.965 63.071 100.766 62.752 100.639C62.4375 100.507 62.0661 100.44 61.6377 100.44H60.7354Z" fill="white"/>
</svg>
